<svg xmlns="http://www.w3.org/2000/svg" width="17" height="15" viewBox="0 0 17 15" fill="none">
  <path d="M16.6645 4.47285C16.6645 5.62285 16.2312 6.76452 15.3562 7.63952L8.92285 14.0729C8.75619 14.2312 8.54785 14.3145 8.33119 14.3145C8.11452 14.3145 7.90619 14.2312 7.73952 14.0729L1.30619 7.63952C0.469583 6.79795 0 5.65951 0 4.47285C0 3.2862 0.469583 2.14776 1.30619 1.30619C2.14776 0.469583 3.2862 0 4.47285 0C5.65951 0 6.79795 0.469583 7.63952 1.30619L8.33119 2.00619L9.02285 1.30619C9.86443 0.469583 11.0029 0 12.1895 0C13.3762 0 14.5146 0.469583 15.3562 1.30619C15.7726 1.72146 16.1026 2.21511 16.3272 2.75863C16.5517 3.30215 16.6664 3.88477 16.6645 4.47285Z" fill="#FF31A0"/>
</svg>